<?xml version="1.0" encoding="iso-8859-1"?>
<!-- Uploaded to: SVG Repo, www.svgrepo.com, Generator: SVG Repo Mixer Tools -->
<svg height="800px" width="800px" version="1.1" id="Layer_1" xmlns="http://www.w3.org/2000/svg" xmlns:xlink="http://www.w3.org/1999/xlink" 
	 viewBox="0 0 511.999 511.999" xml:space="preserve">
<path style="fill:#FF4B4B;" d="M394.401,8.294H117.597c-51.388,0-92.06,43.7-88.254,94.947
	c13.132,176.814,61.05,255.936,76.264,400.466h300.786c15.214-144.53,63.132-223.652,76.264-400.466
	C486.461,51.994,445.79,8.294,394.401,8.294z"/>
<circle style="fill:#FF664E;" cx="255.999" cy="362.16" r="97.313"/>
<circle style="fill:#FF8551;" cx="255.999" cy="388.7" r="61.927"/>
<path style="fill:#FFFFFF;" d="M248.491,319.473c1.643,31.768-21.972,43.23-26.961,68.518c-4.125,20.906,9.396,42.477,30.585,44.734
	c21.285,2.267,39.271-14.356,39.271-35.179c0-23.517-13.891-60.924-35.519-81.451C253.078,313.449,248.292,315.634,248.491,319.473z
	"/>
<path style="fill:#FFDC78;" d="M255.355,376.24c-3.421,13.353-19.329,18.335-19.574,36.056c-0.115,8.325,4.338,15.996,12.086,19.046
	c14.546,5.728,28.354-4.839,28.354-18.631c0-13.507-4.01-28.016-15.601-38.171C258.782,372.931,255.962,373.874,255.355,376.24z"/>
<path style="fill:#963737;" d="M300.233,468.32h-88.467c-4.886,0-8.847,3.961-8.847,8.847v26.54h106.16v-26.54
	C309.079,472.28,305.118,468.32,300.233,468.32z"/>
<path d="M465.35,30.956C447.084,11.283,421.224,0,394.401,0H117.598C90.775,0,64.915,11.283,46.649,30.956
	c-18.236,19.642-27.558,46.213-25.577,72.9c7.249,97.598,24.937,165.364,42.044,230.898c13.434,51.467,26.153,100.223,33.221,160.68
	c-4.382,0.221-7.871,3.835-7.871,8.273c0,4.58,3.713,8.294,8.294,8.294h318.479c4.58,0,8.294-3.713,8.294-8.294
	c0-4.438-3.489-8.05-7.871-8.273c7.068-60.457,19.788-109.214,33.221-160.68c17.106-65.534,34.794-133.299,42.044-230.898
	C492.908,77.168,483.586,50.597,465.35,30.956z M383.988,31.285c15.743,16.586,24.264,43.323,22.795,71.524
	c-5.021,96.312-17.317,163.44-29.209,228.355c-9.604,52.43-18.694,102.074-23.705,164.248h-36.496v-18.246
	c0-9.452-7.689-17.14-17.14-17.14h-35.94v-19.599c20.132-3.887,35.387-21.631,35.387-42.881c0-29.996-19.683-76.538-47.927-95.367
	c-2.791-1.861-6.428-1.858-9.215,0.01c-2.788,1.867-4.176,5.228-3.518,8.517c4.296,21.482-3.079,32.748-11.619,45.792
	c-7.071,10.797-15.082,23.036-15.082,41.047c0,21.25,15.255,38.994,35.387,42.881v19.599h-35.94c-9.452,0-17.14,7.689-17.14,17.14
	v18.246h-36.498c-5.011-62.174-14.1-111.818-23.706-164.249c-11.891-64.916-24.189-132.042-29.208-228.354
	c-1.47-28.2,7.051-54.939,22.795-71.524c9.122-9.61,19.786-14.691,30.841-14.698h194.298
	C364.202,16.593,374.866,21.675,383.988,31.285z M255.999,406.946c-4.58,0-8.294,3.713-8.294,8.294v8.096
	c-10.894-3.512-18.799-13.742-18.799-25.789c0-13.064,5.734-21.821,12.372-31.963c6.551-10.007,13.726-20.964,15.285-36.6
	c15.833,19.109,26.528,48.34,26.528,68.562c0,12.047-7.906,22.278-18.799,25.789v-8.095
	C264.293,410.658,260.58,406.946,255.999,406.946z M300.233,476.613c0.305,0,0.553,0.248,0.553,0.553v18.246h-89.572v-18.246
	c0-0.305,0.248-0.553,0.553-0.553H300.233z M37.614,102.627c-1.665-22.428,5.86-43.873,21.19-60.384
	c15.361-16.544,36.24-25.655,58.794-25.655h1.709c-1.126,1.051-2.24,2.131-3.329,3.278c-18.815,19.821-29.031,51.15-27.328,83.807
	c5.076,97.383,17.47,165.045,29.457,230.48c9.457,51.621,18.409,100.522,23.378,161.26h-28.45
	c-7.15-62.467-20.143-112.257-33.869-164.847C62.246,265.747,44.751,198.723,37.614,102.627z M474.385,102.627
	c-7.137,96.097-24.631,163.12-41.551,227.938c-13.728,52.59-26.719,102.381-33.869,164.847h-28.452
	c4.969-60.738,13.922-109.638,23.378-161.259c11.986-65.434,24.381-133.098,29.457-230.481c1.702-32.656-8.515-63.986-27.33-83.808
	c-1.088-1.147-2.202-2.227-3.327-3.278h1.71c22.552,0,43.433,9.111,58.793,25.655C468.525,58.754,476.05,80.198,474.385,102.627z"/>
</svg>