<?xml version="1.0" encoding="iso-8859-1"?>
<!-- Uploaded to: SVG Repo, www.svgrepo.com, Generator: SVG Repo Mixer Tools -->
<svg version="1.1" id="Layer_1" xmlns="http://www.w3.org/2000/svg" xmlns:xlink="http://www.w3.org/1999/xlink" 
	 viewBox="0 0 512 512" xml:space="preserve">
<path style="fill:#FFE666;" d="M256.597,79.028c-4.329,0-7.837-3.509-7.837-7.837V7.837c0-4.328,3.508-7.837,7.837-7.837
	s7.837,3.509,7.837,7.837v63.354C264.433,75.519,260.926,79.028,256.597,79.028z"/>
<rect x="132.159" y="416.496" style="fill:#7FB2F0;" width="246.136" height="87.667"/>
<g>
	<rect x="132.159" y="416.496" style="fill:#5F95D4;" width="18.808" height="87.667"/>
	<rect x="172.795" y="416.496" style="fill:#5F95D4;" width="18.808" height="87.667"/>
	<rect x="213.514" y="416.496" style="fill:#5F95D4;" width="18.808" height="87.667"/>
	<rect x="256" y="416.496" style="fill:#5F95D4;" width="18.808" height="87.667"/>
	<rect x="295.623" y="416.496" style="fill:#5F95D4;" width="18.808" height="87.667"/>
	<rect x="335.945" y="416.496" style="fill:#5F95D4;" width="18.808" height="87.667"/>
</g>
<path style="fill:#FFE666;" d="M378.295,416.496v87.667c0,4.326-3.511,7.837-7.837,7.837c-4.326,0-7.837-3.511-7.837-7.837v-35.997
	h-18.672v35.997c0,4.326-3.511,7.837-7.837,7.837c-4.336,0-7.837-3.511-7.837-7.837v-35.997h-24.827v35.997
	c0,4.326-3.5,7.837-7.837,7.837c-4.326,0-7.837-3.511-7.837-7.837v-35.997h-23.939v35.997c0,4.326-3.511,7.837-7.837,7.837
	c-4.326,0-7.837-3.511-7.837-7.837v-35.997h-26.906v35.997c0,4.326-3.511,7.837-7.837,7.837c-4.326,0-7.837-3.511-7.837-7.837
	v-35.997h-24.816v35.997c0,4.326-3.511,7.837-7.837,7.837s-7.837-3.511-7.837-7.837v-35.997h-17.262v35.997
	c0,4.326-3.5,7.837-7.837,7.837c-4.326,0-7.837-3.511-7.837-7.837v-87.667c0-4.326,3.511-7.837,7.837-7.837
	c2.173,0,4.127,0.878,5.548,2.299c1.411,1.421,2.288,3.375,2.288,5.538v35.997h17.262v-35.997c0-4.326,3.511-7.837,7.837-7.837
	s7.837,3.511,7.837,7.837v35.997h24.816v-35.997c0-4.326,3.511-7.837,7.837-7.837c4.326,0,7.837,3.511,7.837,7.837v35.997h26.906
	v-35.997c0-4.326,3.511-7.837,7.837-7.837c4.326,0,7.837,3.511,7.837,7.837v35.997h23.939v-35.997c0-4.326,3.511-7.837,7.837-7.837
	c4.336,0,7.837,3.511,7.837,7.837v35.997h24.827v-35.997c0-4.326,3.5-7.837,7.837-7.837c4.326,0,7.837,3.511,7.837,7.837v35.997
	h18.672v-35.997c0-4.326,3.511-7.837,7.837-7.837c2.163,0,4.117,0.878,5.538,2.299C377.417,412.379,378.295,414.333,378.295,416.496
	z"/>
<path style="fill:#5F95D4;" d="M463.935,512H48.065c-4.329,0-7.837-3.509-7.837-7.837s3.508-7.837,7.837-7.837h415.869
	c4.329,0,7.837,3.509,7.837,7.837S468.264,512,463.935,512z"/>
<g>
	<path style="fill:#A9CF54;" d="M417.293,428.48H94.707c-4.104,0-5.298-6.633-1.575-8.695
		c34.138-18.903,52.219-58.517,56.489-68.897c0.641-1.557,1.967-2.534,3.42-2.534h205.915c1.453,0,2.779,0.978,3.42,2.534
		c4.271,10.381,22.352,49.994,56.489,68.897C422.59,421.847,421.397,428.48,417.293,428.48z"/>
	<path style="fill:#A9CF54;" d="M399.84,348.353H112.16c-3.66,0-4.725-6.633-1.404-8.695c30.444-18.903,46.569-58.517,50.378-68.897
		c0.572-1.557,1.754-2.534,3.05-2.534h183.633c1.296,0,2.479,0.978,3.05,2.534c3.809,10.381,19.934,49.994,50.377,68.897
		C404.564,341.72,403.5,348.353,399.84,348.353z"/>
	<path style="fill:#A9CF54;" d="M386.027,268.225H125.701c-3.312,0-4.274-6.635-1.275-8.694
		c27.554-18.902,42.141-58.514,45.589-68.901c0.522-1.557,1.588-2.529,2.759-2.529h166.181c1.17,0,2.236,0.972,2.759,2.529
		c3.448,10.386,18.035,49.998,45.589,68.901C390.301,261.59,389.339,268.225,386.027,268.225z"/>
	<path style="fill:#A9CF54;" d="M363.969,188.103h-216.21c-2.759,0-3.553-6.635-1.055-8.694
		c22.873-18.902,34.994-58.525,37.857-68.901c0.428-1.557,1.317-2.539,2.299-2.539h138.01c0.972,0,1.87,0.982,2.299,2.539
		c2.863,10.376,14.973,49.998,37.857,68.901C367.522,181.467,366.717,188.103,363.969,188.103z"/>
</g>
<g>
	<path style="fill:#92B83D;" d="M115.961,419.786c34.138-18.903,52.22-58.517,56.49-68.897c0.641-1.557,1.966-2.535,3.42-2.535
		h-22.828c-1.453,0-2.779,0.978-3.42,2.535c-4.27,10.381-22.352,49.994-56.49,68.897c-3.723,2.062-2.53,8.695,1.575,8.695h22.828
		C113.431,428.48,112.238,421.847,115.961,419.786z"/>
	<path style="fill:#92B83D;" d="M133.584,339.659c30.443-18.903,46.569-58.517,50.377-68.897c0.571-1.557,1.753-2.534,3.05-2.534
		h-22.828c-1.296,0-2.478,0.978-3.05,2.534c-3.809,10.381-19.934,49.995-50.378,68.897c-3.32,2.062-2.256,8.695,1.404,8.695h22.828
		C131.328,348.353,130.264,341.72,133.584,339.659z"/>
	<path style="fill:#92B83D;" d="M147.254,259.532c27.554-18.902,42.141-58.514,45.589-68.901c0.522-1.557,1.588-2.529,2.759-2.529
		h-22.828c-1.17,0-2.236,0.972-2.759,2.529c-3.448,10.386-18.035,49.998-45.589,68.901c-2.999,2.058-2.038,8.694,1.275,8.694h22.828
		C145.217,268.225,144.255,261.59,147.254,259.532z"/>
	<path style="fill:#92B83D;" d="M169.532,179.409c22.873-18.902,34.994-58.525,37.857-68.901c0.428-1.557,1.317-2.539,2.299-2.539
		h-22.828c-0.982,0-1.87,0.982-2.299,2.539c-2.863,10.376-14.984,49.998-37.857,68.901c-2.497,2.058-1.703,8.694,1.055,8.694h22.828
		C167.828,188.103,167.034,181.467,169.532,179.409z"/>
</g>
<path style="fill:#A9CF54;" d="M338.38,107.969H174.811c-4.263,0-5.789-5.642-2.1-7.784l81.784-47.689
	c1.296-0.763,2.905-0.763,4.201,0l6.499,3.793l75.285,43.896C344.168,102.327,342.643,107.969,338.38,107.969z"/>
<path style="fill:#92B83D;" d="M199.546,100.185l70.465-41.089l-4.816-2.808l-6.499-3.793c-1.296-0.763-2.905-0.763-4.201,0
	l-81.784,47.689c-3.688,2.142-2.163,7.784,2.1,7.784h26.835C197.383,107.969,195.858,102.327,199.546,100.185z"/>
<g>
	<path style="fill:#FFE666;" d="M421.094,436.317H90.906c-22.758,0-41.273-18.516-41.273-41.273c0-4.328,3.508-7.837,7.837-7.837
		s7.837,3.509,7.837,7.837c0,14.116,11.483,25.6,25.6,25.6h330.188c14.117,0,25.6-11.484,25.6-25.6c0-4.328,3.508-7.837,7.837-7.837
		c4.329,0,7.837,3.509,7.837,7.837C462.367,417.801,443.852,436.317,421.094,436.317z"/>
	<path style="fill:#FFE666;" d="M406.819,356.19H105.18c-22.758,0-41.273-18.516-41.273-41.273c0-4.328,3.508-7.837,7.837-7.837
		s7.837,3.509,7.837,7.837c0,14.116,11.483,25.6,25.6,25.6H406.82c14.117,0,25.6-11.484,25.6-25.6c0-4.328,3.508-7.837,7.837-7.837
		s7.837,3.509,7.837,7.837C448.093,337.675,429.577,356.19,406.819,356.19z"/>
	<path style="fill:#FFE666;" d="M389.105,276.063H122.15c-22.758,0-41.273-18.516-41.273-41.273c0-4.328,3.508-7.837,7.837-7.837
		s7.837,3.509,7.837,7.837c0,14.116,11.483,25.6,25.6,25.6h266.955c14.117,0,25.6-11.484,25.6-25.6c0-4.328,3.508-7.837,7.837-7.837
		s7.837,3.509,7.837,7.837C430.379,257.547,411.863,276.063,389.105,276.063z"/>
	<path style="fill:#FFE666;" d="M371.625,196.062H140.375c-22.758,0-41.272-18.516-41.272-41.273c0-4.328,3.508-7.837,7.837-7.837
		s7.837,3.509,7.837,7.837c0,14.116,11.483,25.6,25.599,25.6h231.251c14.116,0,25.599-11.484,25.599-25.6
		c0-4.328,3.508-7.837,7.837-7.837s7.837,3.509,7.837,7.837C412.898,177.546,394.384,196.062,371.625,196.062z"/>
	<path style="fill:#FFE666;" d="M342.566,115.809h-171.94c-22.758,0-41.273-18.516-41.273-41.273c0-4.328,3.508-7.837,7.837-7.837
		c4.329,0,7.837,3.509,7.837,7.837c0,14.116,11.483,25.6,25.6,25.6h171.94c14.117,0,25.6-11.484,25.6-25.6
		c0-4.328,3.508-7.837,7.837-7.837s7.837,3.509,7.837,7.837C383.839,97.295,365.323,115.809,342.566,115.809z"/>
</g>
</svg>